<svg width="24" height="24" viewBox="0 0 24 24" fill="none" xmlns="http://www.w3.org/2000/svg">
<path fill-rule="nonzero" clip-rule="evenodd" d="M9.34864 15.1509C13.2285 19.0308 16.8079 19.144 18.1868 19.0153C18.4604 18.9891 18.7348 18.8463 18.9943 18.5868L20.3541 17.227C20.8943 16.6868 20.7748 15.7004 20.0097 15.2818L18.1811 14.2819C17.689 14.0132 17.1148 14.1023 16.7577 14.4594L16.3221 14.895L15.7918 14.3646C16.3221 14.895 16.3214 14.8957 16.3207 14.8964L16.2953 14.9218C16.2533 14.9603 16.2081 14.995 16.1602 15.0258C16.0817 15.0788 15.9785 15.1368 15.8484 15.1849C15.5839 15.2839 15.236 15.3362 14.8054 15.2704C13.9646 15.141 12.8594 14.5662 11.3964 13.1032C9.93342 11.6402 9.35854 10.535 9.22914 9.6942C9.16267 9.26428 9.215 8.91638 9.3147 8.65122C9.37008 8.50286 9.44859 8.36419 9.54734 8.24039L9.57916 8.20433L9.5933 8.19019L9.59825 8.18382L9.6032 8.17887C9.6032 8.17887 9.60462 8.17746 10.1349 8.70779L9.60462 8.17746L9.87897 7.9031C10.2792 7.50288 10.3365 6.83608 9.95676 6.32625L8.74972 4.70486C8.27667 4.06775 7.39774 4.02038 6.90418 4.51394L5.40157 6.01654C5.09045 6.32767 4.94266 6.6692 4.96105 6.99447C5.036 8.33939 5.64765 11.4499 9.34864 15.1509ZM10.7162 9.18721L10.9396 8.96376C11.8921 8.01129 11.9621 6.50727 11.161 5.43035L9.95393 3.80895C8.96822 2.48384 7.02438 2.27241 5.84352 3.45328L4.34091 4.95588C3.8226 5.47419 3.41319 6.20887 3.46339 7.07791C3.55956 8.78628 4.32182 12.2454 8.28798 16.2116C12.5377 20.4613 16.5859 20.6713 18.3268 20.5087C19.0402 20.4415 19.6229 20.0795 20.0549 19.6474L21.4147 18.2877C22.7108 16.9915 22.312 14.8306 20.7295 13.9665L18.9009 12.9667C17.8502 12.3911 16.5456 12.5502 15.6978 13.398L15.3124 13.7834C15.2214 13.8068 15.1262 13.8085 15.0345 13.7884C14.6498 13.729 13.8225 13.4079 12.4571 12.0425C11.0924 10.6778 10.7706 9.84977 10.7112 9.4651C10.6865 9.306 10.7056 9.21903 10.7162 9.18721Z" fill="black"/>
</svg>