<?xml version="1.0" standalone="no"?>
<!DOCTYPE svg PUBLIC "-//W3C//DTD SVG 20010904//EN"
 "http://www.w3.org/TR/2001/REC-SVG-20010904/DTD/svg10.dtd">
<svg version="1.0" xmlns="http://www.w3.org/2000/svg"
 width="512.000000pt" height="512.000000pt" viewBox="0 0 512.000000 512.000000"
 preserveAspectRatio="xMidYMid meet">
<metadata>
Created by potrace 1.16, written by Peter Selinger 2001-2019
</metadata>
<g transform="translate(0.000000,512.000000) scale(0.100000,-0.100000)"
fill="#000000" stroke="none">
<path d="M1545 4539 c-121 -20 -178 -55 -349 -213 -184 -171 -362 -371 -402
-451 -49 -100 -61 -194 -46 -343 61 -596 401 -1232 967 -1811 310 -316 605
-540 930 -706 351 -179 740 -275 1104 -275 190 1 306 28 411 96 72 48 459 435
493 495 44 75 68 158 74 254 11 171 -52 332 -176 455 -53 52 -102 85 -241 162
-360 198 -417 220 -569 220 -150 -1 -272 -53 -409 -175 -34 -31 -74 -60 -87
-63 -151 -38 -616 334 -845 675 -53 79 -107 195 -116 248 -6 37 -3 43 50 103
139 160 192 344 147 520 -28 110 -53 158 -160 309 -262 367 -361 453 -564 495
-82 17 -134 18 -212 5z m222 -343 c55 -27 122 -105 272 -315 126 -176 135
-193 135 -270 0 -79 -17 -118 -98 -210 -90 -104 -101 -134 -101 -281 0 -121 2
-128 36 -211 77 -185 216 -378 418 -579 178 -178 350 -309 506 -387 132 -66
176 -78 300 -78 135 0 163 12 285 120 109 96 147 115 233 115 63 0 75 -4 190
-64 148 -77 365 -201 391 -224 10 -9 30 -39 44 -67 33 -65 37 -180 8 -235 -28
-52 -373 -393 -426 -421 -43 -23 -54 -24 -235 -23 -301 1 -514 48 -825 183
-509 222 -1070 725 -1443 1296 -230 353 -388 780 -391 1060 -1 127 5 137 179
321 164 174 284 279 333 293 55 15 133 6 189 -23z"/>
</g>
</svg>
