<?xml version="1.0" standalone="no"?>
<!DOCTYPE svg PUBLIC "-//W3C//DTD SVG 20010904//EN"
 "http://www.w3.org/TR/2001/REC-SVG-20010904/DTD/svg10.dtd">
<svg version="1.0" xmlns="http://www.w3.org/2000/svg"
 width="512.000000pt" height="512.000000pt" viewBox="0 0 512.000000 512.000000"
 preserveAspectRatio="xMidYMid meet">
<metadata>
Created by potrace 1.16, written by Peter Selinger 2001-2019
</metadata>
<g transform="translate(0.000000,512.000000) scale(0.100000,-0.100000)"
fill="#000000" stroke="none">
<path d="M1523 4535 c-137 -30 -177 -59 -434 -315 -260 -258 -300 -313 -335
-453 -42 -172 22 -536 151 -857 318 -793 1113 -1627 1863 -1955 330 -145 651
-215 975 -215 180 0 262 15 367 66 67 33 99 60 297 257 183 181 228 232 257
287 47 89 66 166 66 268 0 208 -106 397 -283 506 -109 66 -436 242 -492 264
-81 32 -192 45 -279 33 -134 -19 -230 -68 -345 -176 -58 -55 -74 -65 -104 -65
-141 0 -429 206 -672 480 -156 176 -253 336 -271 450 -6 38 -4 42 54 104 97
104 162 262 162 396 0 68 -26 176 -60 248 -38 80 -290 423 -379 514 -138 142
-345 205 -538 163z m201 -319 c26 -8 63 -27 83 -41 57 -44 341 -431 358 -489
31 -105 10 -180 -80 -275 -92 -97 -119 -160 -119 -276 -1 -111 25 -200 96
-336 157 -302 574 -712 873 -859 122 -60 198 -80 304 -80 119 0 175 24 278
121 107 101 148 123 233 123 55 0 76 -5 135 -36 149 -76 421 -230 443 -251 68
-63 98 -178 72 -274 -12 -42 -35 -70 -202 -239 -124 -126 -205 -199 -236 -215
-42 -21 -63 -24 -192 -27 -318 -8 -634 67 -960 229 -275 136 -525 317 -778
563 -535 521 -862 1072 -954 1611 -23 136 -21 221 7 280 11 25 97 119 224 247
184 184 211 208 256 221 64 20 100 20 159 3z"/>
</g>
</svg>
